<svg width="450" height="207" viewBox="0 0 450 207" fill="none" xmlns="http://www.w3.org/2000/svg">
<path d="M2.9954 165.035C2.66795 165.035 2.50422 164.861 2.50422 164.514V142.766C2.50422 142.459 2.64748 142.306 2.934 142.306H6.95549C7.13968 142.306 7.27271 142.337 7.35457 142.398C7.43643 142.439 7.49783 142.531 7.53876 142.674L13.6784 158.755C13.7603 158.939 13.8422 159.031 13.924 159.031C14.0059 159.011 14.0775 158.909 14.1389 158.725L20.1865 142.796C20.3093 142.47 20.4935 142.306 20.7391 142.306H24.9141C25.1801 142.306 25.3131 142.459 25.3131 142.766V164.484C25.3131 164.851 25.1289 165.035 24.7606 165.035H22.1205C21.9363 165.035 21.8033 165.004 21.7214 164.943C21.6396 164.861 21.5986 164.729 21.5986 164.545V147.759C21.5986 147.636 21.5679 147.585 21.5065 147.606C21.4656 147.626 21.4349 147.687 21.4144 147.789L15.0906 164.606C14.9882 164.892 14.7938 165.035 14.5073 165.035H12.6654C12.3379 165.035 12.1231 164.902 12.0207 164.637L5.81965 147.973C5.75825 147.851 5.70709 147.789 5.66616 147.789C5.62523 147.789 5.60476 147.851 5.60476 147.973V164.606C5.60476 164.749 5.57406 164.861 5.51266 164.943C5.45127 165.004 5.32847 165.035 5.14428 165.035H2.9954Z" fill="#484A4B"/>
<path d="M36.3629 162.891C37.1815 162.891 37.949 162.676 38.6653 162.247C39.402 161.798 40.1183 161.206 40.8141 160.471V149.321C40.8141 148.974 41.0086 148.8 41.3974 148.8H43.6077C43.9351 148.8 44.0989 148.964 44.0989 149.29L44.0375 164.606C44.0375 164.892 43.9147 165.035 43.6691 165.035H41.2746C41.029 165.035 40.9062 164.902 40.9062 164.637V162.921C40.9062 162.819 40.8755 162.758 40.8141 162.738C40.7732 162.697 40.7016 162.727 40.5993 162.829C39.5555 163.769 38.6039 164.422 37.7443 164.79C36.8847 165.157 36.0047 165.341 35.1042 165.341C34.1833 165.341 33.3544 165.147 32.6177 164.759C31.9014 164.371 31.3283 163.82 30.8986 163.105C30.4892 162.39 30.2846 161.553 30.2846 160.593V149.352C30.2846 148.984 30.4688 148.8 30.8372 148.8H33.0781C33.3851 148.8 33.5386 148.964 33.5386 149.29V159.919C33.5386 160.798 33.7842 161.512 34.2754 162.064C34.787 162.615 35.4829 162.891 36.3629 162.891Z" fill="#484A4B"/>
<path d="M51.9579 164.453C51.9579 164.678 51.9067 164.831 51.8044 164.912C51.7225 164.994 51.5588 165.035 51.3132 165.035H49.2257C48.8574 165.035 48.6732 164.872 48.6732 164.545L48.7346 142.766C48.7346 142.459 48.8676 142.306 49.1337 142.306H51.5588C51.8249 142.306 51.9579 142.459 51.9579 142.766V164.453Z" fill="#484A4B"/>
<path d="M61.6907 151.128C61.5065 151.128 61.4144 151.23 61.4144 151.434V160.41C61.4144 161.288 61.5782 161.89 61.9056 162.217C62.2331 162.523 62.7345 162.676 63.4098 162.676H65.3745C65.4973 162.676 65.5894 162.717 65.6508 162.799C65.7122 162.86 65.7429 162.942 65.7429 163.044V164.361C65.7429 164.626 65.5894 164.8 65.2824 164.882C65.0164 164.923 64.6889 164.953 64.3001 164.974C63.9112 164.994 63.5224 165.014 63.1336 165.035C62.7652 165.035 62.4377 165.035 62.1512 165.035C60.8209 165.035 59.8181 164.729 59.1428 164.116C58.4879 163.483 58.1604 162.513 58.1604 161.206V151.496C58.1604 151.251 58.0581 151.128 57.8534 151.128H55.5511C55.285 151.128 55.152 151.006 55.152 150.761V149.137C55.152 148.913 55.2748 148.8 55.5204 148.8H57.9762C58.14 148.8 58.2218 148.708 58.2218 148.525L58.5902 143.715C58.6107 143.429 58.7335 143.287 58.9586 143.287H61.0768C61.3428 143.287 61.4758 143.45 61.4758 143.777V148.525C61.4758 148.708 61.5679 148.8 61.7521 148.8H65.4359C65.6815 148.8 65.8043 148.913 65.8043 149.137V150.761C65.8043 151.006 65.6611 151.128 65.3745 151.128H61.6907Z" fill="#484A4B"/>
<path d="M72.4771 164.453C72.4771 164.678 72.426 164.831 72.3236 164.912C72.2418 164.994 72.0883 165.035 71.8632 165.035H69.7757C69.5506 165.035 69.3971 165.004 69.3152 164.943C69.2538 164.861 69.2231 164.729 69.2231 164.545V149.26C69.2231 148.953 69.3664 148.8 69.6529 148.8H72.1088C72.3543 148.8 72.4771 148.943 72.4771 149.229V164.453ZM72.5692 145.553C72.5692 145.982 72.3646 146.197 71.9553 146.197H69.6836C69.4585 146.197 69.305 146.145 69.2231 146.043C69.1617 145.941 69.131 145.798 69.131 145.615V142.827C69.131 142.48 69.2845 142.306 69.5915 142.306H72.1395C72.426 142.306 72.5692 142.47 72.5692 142.796V145.553Z" fill="#484A4B"/>
<path d="M79.8469 148.8C80.1948 148.8 80.3688 148.964 80.3688 149.29V150.485C80.3688 150.628 80.3995 150.71 80.4609 150.73C80.5427 150.73 80.6451 150.679 80.7679 150.577C81.0339 150.311 81.3614 150.025 81.7502 149.719C82.1391 149.392 82.6302 149.107 83.2237 148.861C83.8377 148.616 84.5847 148.494 85.4647 148.494C86.7131 148.494 87.8285 148.8 88.8109 149.413C89.8137 150.005 90.6016 150.904 91.1746 152.108C91.7681 153.313 92.0649 154.845 92.0649 156.703C92.0649 158.582 91.7681 160.164 91.1746 161.451C90.6016 162.717 89.7932 163.687 88.7495 164.361C87.7262 165.014 86.5289 165.341 85.1577 165.341C84.2572 165.341 83.4489 165.208 82.7326 164.943C82.0367 164.657 81.4228 164.279 80.8907 163.81C80.7065 163.626 80.5734 163.554 80.4916 163.595C80.4097 163.616 80.3688 163.748 80.3688 163.993V169.66C80.3688 169.946 80.246 170.089 80.0004 170.089H77.5138C77.2478 170.089 77.1148 169.946 77.1148 169.66V149.352C77.1148 149.147 77.1557 149.004 77.2376 148.923C77.3194 148.841 77.4729 148.8 77.698 148.8H79.8469ZM80.3688 161.267C80.9214 161.839 81.4944 162.298 82.0879 162.646C82.7019 162.972 83.3875 163.136 84.1447 163.136C85.0656 163.136 85.8638 162.901 86.5392 162.431C87.235 161.962 87.7773 161.257 88.1662 160.318C88.555 159.358 88.7495 158.153 88.7495 156.703C88.7495 155.253 88.5448 154.089 88.1355 153.211C87.7466 152.333 87.2145 151.7 86.5392 151.312C85.8638 150.904 85.1168 150.699 84.2982 150.699C83.541 150.699 82.8656 150.863 82.2721 151.189C81.6786 151.516 81.2079 151.925 80.86 152.415C80.5325 152.905 80.3688 153.395 80.3688 153.885V161.267Z" fill="#484A4B"/>
<path d="M101.753 162.891C102.571 162.891 103.339 162.676 104.055 162.247C104.792 161.798 105.508 161.206 106.204 160.471V149.321C106.204 148.974 106.399 148.8 106.787 148.8H108.998C109.325 148.8 109.489 148.964 109.489 149.29L109.427 164.606C109.427 164.892 109.305 165.035 109.059 165.035H106.665C106.419 165.035 106.296 164.902 106.296 164.637V162.921C106.296 162.819 106.266 162.758 106.204 162.738C106.163 162.697 106.092 162.727 105.989 162.829C104.945 163.769 103.994 164.422 103.134 164.79C102.275 165.157 101.395 165.341 100.494 165.341C99.5733 165.341 98.7444 165.147 98.0077 164.759C97.2914 164.371 96.7183 163.82 96.2885 163.105C95.8792 162.39 95.6746 161.553 95.6746 160.593V149.352C95.6746 148.984 95.8588 148.8 96.2271 148.8H98.4681C98.7751 148.8 98.9286 148.964 98.9286 149.29V159.919C98.9286 160.798 99.1742 161.512 99.6654 162.064C100.177 162.615 100.873 162.891 101.753 162.891Z" fill="#484A4B"/>
<path d="M114.554 165.035C114.391 165.035 114.268 164.994 114.186 164.912C114.104 164.831 114.063 164.708 114.063 164.545V149.26C114.063 148.953 114.196 148.8 114.462 148.8H116.826C117.072 148.8 117.194 148.933 117.194 149.198V151.128C117.194 151.251 117.225 151.322 117.286 151.343C117.368 151.363 117.45 151.322 117.532 151.22C118.044 150.607 118.555 150.107 119.067 149.719C119.599 149.311 120.131 149.004 120.663 148.8C121.195 148.596 121.728 148.494 122.26 148.494C122.976 148.494 123.334 148.637 123.334 148.923V151.312C123.334 151.557 123.222 151.659 122.996 151.618C122.751 151.557 122.485 151.516 122.198 151.496C121.932 151.475 121.656 151.465 121.369 151.465C120.94 151.465 120.489 151.557 120.019 151.741C119.548 151.925 119.108 152.18 118.699 152.507C118.31 152.813 117.982 153.16 117.716 153.548C117.45 153.936 117.317 154.334 117.317 154.743V164.514C117.317 164.861 117.123 165.035 116.734 165.035H114.554Z" fill="#484A4B"/>
<path d="M129.274 148.8C129.622 148.8 129.796 148.964 129.796 149.29V150.485C129.796 150.628 129.826 150.71 129.888 150.73C129.97 150.73 130.072 150.679 130.195 150.577C130.461 150.311 130.788 150.025 131.177 149.719C131.566 149.392 132.057 149.107 132.651 148.861C133.265 148.616 134.012 148.494 134.892 148.494C136.14 148.494 137.255 148.8 138.238 149.413C139.24 150.005 140.028 150.904 140.601 152.108C141.195 153.313 141.492 154.845 141.492 156.703C141.492 158.582 141.195 160.164 140.601 161.451C140.028 162.717 139.22 163.687 138.176 164.361C137.153 165.014 135.956 165.341 134.585 165.341C133.684 165.341 132.876 165.208 132.159 164.943C131.464 164.657 130.85 164.279 130.317 163.81C130.133 163.626 130 163.554 129.918 163.595C129.837 163.616 129.796 163.748 129.796 163.993V169.66C129.796 169.946 129.673 170.089 129.427 170.089H126.941C126.675 170.089 126.542 169.946 126.542 169.66V149.352C126.542 149.147 126.583 149.004 126.664 148.923C126.746 148.841 126.9 148.8 127.125 148.8H129.274ZM129.796 161.267C130.348 161.839 130.921 162.298 131.515 162.646C132.129 162.972 132.814 163.136 133.572 163.136C134.492 163.136 135.291 162.901 135.966 162.431C136.662 161.962 137.204 161.257 137.593 160.318C137.982 159.358 138.176 158.153 138.176 156.703C138.176 155.253 137.972 154.089 137.562 153.211C137.173 152.333 136.641 151.7 135.966 151.312C135.291 150.904 134.544 150.699 133.725 150.699C132.968 150.699 132.292 150.863 131.699 151.189C131.105 151.516 130.635 151.925 130.287 152.415C129.959 152.905 129.796 153.395 129.796 153.885V161.267Z" fill="#484A4B"/>
<path d="M152.316 165.341C150.74 165.341 149.358 164.994 148.171 164.3C146.984 163.585 146.063 162.605 145.408 161.359C144.753 160.093 144.426 158.643 144.426 157.009C144.426 155.314 144.764 153.834 145.439 152.568C146.114 151.281 147.046 150.281 148.233 149.566C149.44 148.851 150.811 148.494 152.346 148.494C153.943 148.494 155.324 148.861 156.491 149.597C157.678 150.311 158.598 151.312 159.253 152.598C159.908 153.865 160.236 155.325 160.236 156.979C160.236 158.612 159.898 160.062 159.223 161.328C158.568 162.574 157.647 163.554 156.46 164.269C155.273 164.984 153.891 165.341 152.316 165.341ZM152.377 163.044C153.339 163.044 154.157 162.799 154.833 162.309C155.508 161.819 156.02 161.124 156.368 160.226C156.736 159.307 156.92 158.204 156.92 156.918C156.92 155.631 156.736 154.528 156.368 153.609C156.02 152.69 155.498 151.986 154.802 151.496C154.127 150.985 153.308 150.73 152.346 150.73C151.384 150.73 150.555 150.985 149.86 151.496C149.184 151.986 148.662 152.69 148.294 153.609C147.926 154.528 147.741 155.631 147.741 156.918C147.741 158.204 147.926 159.307 148.294 160.226C148.662 161.124 149.184 161.819 149.86 162.309C150.555 162.799 151.395 163.044 152.377 163.044Z" fill="#484A4B"/>
<path d="M173.824 152.598C173.435 152.027 172.893 151.557 172.197 151.189C171.501 150.822 170.672 150.638 169.71 150.638C168.707 150.638 167.868 150.842 167.193 151.251C166.538 151.659 166.211 152.231 166.211 152.966C166.211 153.313 166.354 153.66 166.64 154.008C166.927 154.355 167.541 154.661 168.482 154.926L172.258 155.999C173.752 156.387 174.827 156.969 175.482 157.745C176.136 158.521 176.464 159.409 176.464 160.41C176.464 161.431 176.167 162.309 175.574 163.044C175.001 163.759 174.192 164.32 173.148 164.729C172.125 165.137 170.948 165.341 169.618 165.341C167.94 165.341 166.477 165.025 165.228 164.392C164 163.738 163.131 162.932 162.619 161.972C162.578 161.849 162.558 161.747 162.558 161.665C162.558 161.563 162.598 161.482 162.68 161.42L164.185 160.624C164.328 160.542 164.44 160.512 164.522 160.532C164.625 160.532 164.696 160.573 164.737 160.655C165.065 161.124 165.443 161.543 165.873 161.91C166.303 162.278 166.825 162.574 167.439 162.799C168.053 163.003 168.789 163.105 169.649 163.105C170.365 163.105 171.01 163.013 171.583 162.829C172.176 162.625 172.637 162.35 172.964 162.002C173.292 161.655 173.455 161.247 173.455 160.777C173.455 160.287 173.251 159.868 172.841 159.521C172.453 159.154 171.757 158.837 170.754 158.572L167.623 157.775C166.067 157.367 164.952 156.805 164.277 156.09C163.601 155.376 163.264 154.518 163.264 153.517C163.264 152.517 163.53 151.649 164.062 150.914C164.594 150.158 165.341 149.566 166.303 149.137C167.285 148.708 168.431 148.494 169.741 148.494C171.174 148.494 172.432 148.77 173.517 149.321C174.602 149.852 175.42 150.536 175.973 151.373C176.034 151.455 176.075 151.547 176.095 151.649C176.116 151.731 176.065 151.812 175.942 151.894L174.346 152.721C174.264 152.762 174.172 152.772 174.069 152.752C173.988 152.731 173.906 152.68 173.824 152.598Z" fill="#484A4B"/>
<path d="M182.622 158.051C182.622 158.97 182.837 159.807 183.267 160.563C183.717 161.298 184.31 161.89 185.047 162.339C185.804 162.768 186.644 162.983 187.564 162.983C188.506 162.983 189.345 162.789 190.082 162.401C190.819 162.013 191.494 161.41 192.108 160.593C192.169 160.512 192.231 160.471 192.292 160.471C192.353 160.45 192.446 160.471 192.568 160.532L194.134 161.267C194.359 161.369 194.38 161.533 194.195 161.757C193.622 162.595 192.988 163.279 192.292 163.81C191.617 164.341 190.859 164.729 190.02 164.974C189.181 165.219 188.25 165.341 187.227 165.341C185.671 165.341 184.3 164.994 183.113 164.3C181.926 163.605 180.985 162.635 180.289 161.39C179.614 160.144 179.276 158.715 179.276 157.101C179.276 155.325 179.624 153.803 180.32 152.537C181.015 151.251 181.957 150.26 183.144 149.566C184.351 148.851 185.692 148.494 187.165 148.494C188.68 148.494 190 148.831 191.125 149.505C192.272 150.158 193.162 151.108 193.796 152.353C194.431 153.599 194.748 155.11 194.748 156.887C194.748 157.071 194.727 157.234 194.687 157.377C194.646 157.5 194.513 157.561 194.287 157.561H182.929C182.827 157.561 182.745 157.612 182.683 157.714C182.643 157.796 182.622 157.908 182.622 158.051ZM191.003 155.631C191.228 155.631 191.371 155.6 191.432 155.539C191.494 155.478 191.525 155.366 191.525 155.202C191.525 154.426 191.351 153.691 191.003 152.997C190.675 152.302 190.194 151.741 189.56 151.312C188.946 150.883 188.178 150.669 187.257 150.669C186.296 150.669 185.467 150.904 184.771 151.373C184.096 151.822 183.574 152.425 183.205 153.18C182.857 153.936 182.683 154.743 182.683 155.6L191.003 155.631Z" fill="#484A4B"/>
<path d="M218.261 146.901C217.729 146.309 217.074 145.798 216.296 145.369C215.519 144.941 214.506 144.726 213.257 144.726C211.804 144.726 210.668 145.033 209.85 145.645C209.052 146.237 208.653 147.064 208.653 148.126C208.653 148.412 208.724 148.749 208.867 149.137C209.011 149.525 209.297 149.903 209.727 150.271C210.177 150.618 210.822 150.944 211.661 151.251L216.266 152.69C218.128 153.262 219.458 154.079 220.257 155.141C221.075 156.182 221.485 157.408 221.485 158.817C221.485 160.164 221.137 161.328 220.441 162.309C219.765 163.289 218.793 164.044 217.524 164.575C216.276 165.086 214.782 165.341 213.042 165.341C211.753 165.341 210.556 165.198 209.451 164.912C208.366 164.606 207.394 164.167 206.534 163.595C205.695 163.003 204.989 162.288 204.416 161.451C204.334 161.308 204.304 161.175 204.324 161.053C204.345 160.93 204.437 160.808 204.6 160.685L206.105 159.644C206.33 159.501 206.504 159.44 206.627 159.46C206.749 159.48 206.862 159.552 206.964 159.674C207.476 160.328 207.987 160.879 208.499 161.328C209.031 161.778 209.635 162.115 210.31 162.339C211.006 162.544 211.845 162.646 212.828 162.646C214.363 162.646 215.59 162.38 216.511 161.849C217.453 161.298 217.924 160.43 217.924 159.246C217.924 158.776 217.831 158.357 217.647 157.99C217.463 157.602 217.146 157.254 216.696 156.948C216.245 156.621 215.59 156.305 214.731 155.999L210.095 154.498C208.929 154.11 207.977 153.609 207.24 152.997C206.524 152.384 205.992 151.69 205.644 150.914C205.296 150.138 205.122 149.341 205.122 148.525C205.122 147.218 205.46 146.074 206.135 145.094C206.811 144.114 207.752 143.358 208.96 142.827C210.167 142.276 211.579 142 213.196 142C214.281 142 215.273 142.133 216.174 142.398C217.095 142.643 217.934 143.001 218.691 143.47C219.448 143.92 220.093 144.461 220.625 145.094C220.707 145.196 220.758 145.298 220.778 145.4C220.819 145.502 220.768 145.615 220.625 145.737L218.875 147.085C218.752 147.167 218.65 147.197 218.568 147.177C218.507 147.136 218.404 147.044 218.261 146.901Z" fill="#484A4B"/>
<path d="M225.977 165.035C225.65 165.035 225.486 164.872 225.486 164.545V142.766C225.486 142.459 225.609 142.306 225.854 142.306H228.279C228.525 142.306 228.648 142.439 228.648 142.705V150.791C228.648 150.893 228.668 150.965 228.709 151.006C228.771 151.026 228.852 150.985 228.955 150.883C229.651 150.332 230.285 149.883 230.858 149.535C231.452 149.188 232.035 148.933 232.608 148.77C233.201 148.586 233.826 148.494 234.481 148.494C236.056 148.494 237.264 148.923 238.103 149.78C238.942 150.618 239.362 151.761 239.362 153.211V164.484C239.362 164.851 239.188 165.035 238.84 165.035H236.568C236.404 165.035 236.281 165.004 236.2 164.943C236.138 164.861 236.108 164.729 236.108 164.545V153.824C236.108 152.925 235.872 152.221 235.401 151.71C234.951 151.2 234.235 150.944 233.253 150.944C232.7 150.944 232.178 151.036 231.687 151.22C231.216 151.383 230.746 151.639 230.275 151.986C229.804 152.313 229.292 152.731 228.74 153.242V164.514C228.74 164.861 228.545 165.035 228.157 165.035H225.977Z" fill="#484A4B"/>
<path d="M250.839 165.341C249.264 165.341 247.882 164.994 246.695 164.3C245.508 163.585 244.587 162.605 243.932 161.359C243.277 160.093 242.95 158.643 242.95 157.009C242.95 155.314 243.288 153.834 243.963 152.568C244.638 151.281 245.57 150.281 246.757 149.566C247.964 148.851 249.335 148.494 250.87 148.494C252.466 148.494 253.848 148.861 255.014 149.597C256.201 150.311 257.122 151.312 257.777 152.598C258.432 153.865 258.76 155.325 258.76 156.979C258.76 158.612 258.422 160.062 257.747 161.328C257.092 162.574 256.171 163.554 254.984 164.269C253.797 164.984 252.415 165.341 250.839 165.341ZM250.901 163.044C251.863 163.044 252.681 162.799 253.357 162.309C254.032 161.819 254.544 161.124 254.892 160.226C255.26 159.307 255.444 158.204 255.444 156.918C255.444 155.631 255.26 154.528 254.892 153.609C254.544 152.69 254.022 151.986 253.326 151.496C252.651 150.985 251.832 150.73 250.87 150.73C249.908 150.73 249.079 150.985 248.384 151.496C247.708 151.986 247.186 152.69 246.818 153.609C246.45 154.528 246.265 155.631 246.265 156.918C246.265 158.204 246.45 159.307 246.818 160.226C247.186 161.124 247.708 161.819 248.384 162.309C249.079 162.799 249.918 163.044 250.901 163.044Z" fill="#484A4B"/>
<path d="M265.226 148.8C265.574 148.8 265.748 148.964 265.748 149.29V150.485C265.748 150.628 265.778 150.71 265.84 150.73C265.921 150.73 266.024 150.679 266.147 150.577C266.413 150.311 266.74 150.025 267.129 149.719C267.518 149.392 268.009 149.107 268.602 148.861C269.216 148.616 269.963 148.494 270.843 148.494C272.092 148.494 273.207 148.8 274.19 149.413C275.192 150.005 275.98 150.904 276.553 152.108C277.147 153.313 277.444 154.845 277.444 156.703C277.444 158.582 277.147 160.164 276.553 161.451C275.98 162.717 275.172 163.687 274.128 164.361C273.105 165.014 271.908 165.341 270.536 165.341C269.636 165.341 268.828 165.208 268.111 164.943C267.415 164.657 266.802 164.279 266.269 163.81C266.085 163.626 265.952 163.554 265.87 163.595C265.788 163.616 265.748 163.748 265.748 163.993V169.66C265.748 169.946 265.625 170.089 265.379 170.089H262.893C262.627 170.089 262.494 169.946 262.494 169.66V149.352C262.494 149.147 262.534 149.004 262.616 148.923C262.698 148.841 262.852 148.8 263.077 148.8H265.226ZM265.748 161.267C266.3 161.839 266.873 162.298 267.467 162.646C268.081 162.972 268.766 163.136 269.523 163.136C270.444 163.136 271.243 162.901 271.918 162.431C272.614 161.962 273.156 161.257 273.545 160.318C273.934 159.358 274.128 158.153 274.128 156.703C274.128 155.253 273.924 154.089 273.514 153.211C273.125 152.333 272.593 151.7 271.918 151.312C271.243 150.904 270.496 150.699 269.677 150.699C268.92 150.699 268.244 150.863 267.651 151.189C267.057 151.516 266.587 151.925 266.239 152.415C265.911 152.905 265.748 153.395 265.748 153.885V161.267Z" fill="#484A4B"/>
<path d="M284.492 164.453C284.492 164.678 284.44 164.831 284.338 164.912C284.256 164.994 284.103 165.035 283.878 165.035H281.79C281.565 165.035 281.411 165.004 281.33 164.943C281.268 164.861 281.238 164.729 281.238 164.545V149.26C281.238 148.953 281.381 148.8 281.667 148.8H284.123C284.369 148.8 284.492 148.943 284.492 149.229V164.453ZM284.584 145.553C284.584 145.982 284.379 146.197 283.97 146.197H281.698C281.473 146.197 281.319 146.145 281.238 146.043C281.176 145.941 281.145 145.798 281.145 145.615V142.827C281.145 142.48 281.299 142.306 281.606 142.306H284.154C284.44 142.306 284.584 142.47 284.584 142.796V145.553Z" fill="#484A4B"/>
<path d="M297.725 148.8C297.868 148.8 297.97 148.841 298.032 148.923C298.114 148.984 298.154 149.076 298.154 149.198V150.791C298.154 151.016 298.021 151.128 297.755 151.128H294.563C294.379 151.128 294.287 151.22 294.287 151.404V164.545C294.287 164.872 294.153 165.035 293.887 165.035H291.401C291.155 165.035 291.032 164.892 291.032 164.606V151.373C291.032 151.21 290.961 151.128 290.818 151.128H288.055C287.809 151.128 287.686 151.016 287.686 150.791V149.198C287.686 149.076 287.717 148.984 287.778 148.923C287.84 148.841 287.942 148.8 288.085 148.8H290.725C290.93 148.8 291.032 148.678 291.032 148.433V146.319C291.032 145.033 291.37 144.042 292.046 143.348C292.721 142.653 293.734 142.306 295.085 142.306H297.817C298.124 142.306 298.277 142.459 298.277 142.766L298.308 144.205C298.308 144.308 298.277 144.399 298.216 144.481C298.154 144.542 298.052 144.573 297.909 144.573H295.944C295.351 144.573 294.911 144.767 294.624 145.155C294.358 145.523 294.225 146.023 294.225 146.656V148.525C294.225 148.708 294.327 148.8 294.532 148.8H297.725Z" fill="#484A4B"/>
<path d="M302.383 170.089C301.769 170.089 301.298 170.069 300.971 170.028C300.664 169.987 300.51 169.854 300.51 169.63V168.067C300.51 167.945 300.562 167.843 300.664 167.761C300.787 167.679 301.022 167.639 301.37 167.639H303.365C303.795 167.639 304.184 167.506 304.532 167.24C304.9 166.995 305.197 166.679 305.422 166.291C305.647 165.903 305.79 165.494 305.852 165.066C305.934 164.657 305.913 164.29 305.79 163.963L299.927 149.382C299.866 149.239 299.866 149.107 299.927 148.984C299.988 148.861 300.122 148.8 300.326 148.8H302.843C302.966 148.8 303.079 148.841 303.181 148.923C303.283 148.984 303.345 149.076 303.365 149.198L307.602 160.226C307.663 160.41 307.745 160.501 307.847 160.501C307.95 160.501 308.042 160.379 308.124 160.134L312.299 149.168C312.339 149.066 312.401 148.984 312.483 148.923C312.565 148.841 312.667 148.8 312.79 148.8H314.601C314.765 148.8 314.877 148.861 314.939 148.984C315.02 149.086 315.02 149.198 314.939 149.321L308.338 166.015C308.011 166.852 307.653 167.536 307.264 168.067C306.875 168.598 306.445 169.007 305.975 169.293C305.504 169.599 304.972 169.803 304.378 169.905C303.805 170.028 303.14 170.089 302.383 170.089Z" fill="#484A4B"/>
<path d="M1 184.394C1 184.251 1.0307 184.149 1.0921 184.088C1.17396 184.006 1.29675 183.965 1.46048 183.965H18.3139C18.4776 183.965 18.5902 184.006 18.6516 184.088C18.713 184.149 18.7437 184.251 18.7437 184.394V186.354C18.7437 186.599 18.6004 186.722 18.3139 186.722H12.2356C12.0105 186.722 11.8979 186.814 11.8979 186.998V206.234C11.8979 206.541 11.7649 206.694 11.4989 206.694H8.6132C8.34715 206.694 8.21412 206.551 8.21412 206.265V187.059C8.21412 186.834 8.10156 186.722 7.87644 186.722H1.42978C1.14326 186.722 1 186.599 1 186.354V184.394Z" fill="#484A4B"/>
<path d="M22.9263 206.694C22.5989 206.694 22.4352 206.53 22.4352 206.204V184.425C22.4352 184.118 22.558 183.965 22.8035 183.965H25.2287C25.4743 183.965 25.5971 184.098 25.5971 184.363V192.45C25.5971 192.552 25.6176 192.624 25.6585 192.664C25.7199 192.685 25.8017 192.644 25.9041 192.542C26.5999 191.991 27.2343 191.541 27.8074 191.194C28.4009 190.847 28.9841 190.592 29.5572 190.428C30.1507 190.245 30.7749 190.153 31.4298 190.153C33.0056 190.153 34.2131 190.582 35.0522 191.439C35.8913 192.276 36.3108 193.42 36.3108 194.87V206.142C36.3108 206.51 36.1369 206.694 35.789 206.694H33.5173C33.3536 206.694 33.2308 206.663 33.1489 206.602C33.0875 206.52 33.0568 206.387 33.0568 206.204V195.483C33.0568 194.584 32.8214 193.88 32.3507 193.369C31.9005 192.858 31.1842 192.603 30.2019 192.603C29.6493 192.603 29.1274 192.695 28.6362 192.879C28.1655 193.042 27.6948 193.298 27.2241 193.645C26.7534 193.971 26.2418 194.39 25.6892 194.901V206.173C25.6892 206.52 25.4948 206.694 25.1059 206.694H22.9263Z" fill="#484A4B"/>
<path d="M43.2453 199.71C43.2453 200.629 43.4602 201.466 43.89 202.221C44.3402 202.957 44.9337 203.549 45.6705 203.998C46.4277 204.427 47.2668 204.641 48.1878 204.641C49.1292 204.641 49.9683 204.447 50.705 204.059C51.4418 203.671 52.1172 203.069 52.7311 202.252C52.7925 202.17 52.8539 202.13 52.9153 202.13C52.9767 202.109 53.0688 202.13 53.1916 202.191L54.7572 202.926C54.9823 203.028 55.0028 203.191 54.8186 203.416C54.2456 204.253 53.6111 204.937 52.9153 205.468C52.2399 205.999 51.4827 206.387 50.6436 206.632C49.8045 206.877 48.8734 207 47.8501 207C46.2947 207 44.9235 206.653 43.7365 205.959C42.5495 205.264 41.6081 204.294 40.9122 203.049C40.2369 201.803 39.8992 200.373 39.8992 198.76C39.8992 196.984 40.2471 195.462 40.9429 194.196C41.6388 192.91 42.5802 191.919 43.7672 191.225C44.9747 190.51 46.3152 190.153 47.7887 190.153C49.3031 190.153 50.6232 190.49 51.7488 191.164C52.8948 191.817 53.7851 192.767 54.4195 194.012C55.054 195.258 55.3712 196.769 55.3712 198.546C55.3712 198.73 55.3507 198.893 55.3098 199.036C55.2689 199.158 55.1358 199.22 54.9107 199.22H43.5523C43.45 199.22 43.3681 199.271 43.3067 199.373C43.2658 199.454 43.2453 199.567 43.2453 199.71ZM51.626 197.29C51.8511 197.29 51.9944 197.259 52.0558 197.198C52.1172 197.137 52.1478 197.024 52.1478 196.861C52.1478 196.085 51.9739 195.35 51.626 194.656C51.2985 193.961 50.8176 193.4 50.1832 192.971C49.5692 192.542 48.8017 192.328 47.8808 192.328C46.9189 192.328 46.09 192.562 45.3942 193.032C44.7188 193.481 44.197 194.084 43.8286 194.839C43.4807 195.595 43.3067 196.402 43.3067 197.259L51.626 197.29Z" fill="#484A4B"/>
<path d="M59.4243 206.694C59.0969 206.694 58.9332 206.53 58.9332 206.204V190.918C58.9332 190.612 59.0662 190.459 59.3322 190.459H61.7267C61.9723 190.459 62.0951 190.592 62.0951 190.857V192.542C62.0951 192.644 62.1258 192.716 62.1872 192.756C62.2486 192.777 62.3202 192.736 62.4021 192.634C63.0365 192.123 63.63 191.684 64.1826 191.317C64.7351 190.929 65.298 190.643 65.871 190.459C66.4645 190.255 67.0989 190.153 67.7743 190.153C68.9408 190.153 69.8925 190.428 70.6292 190.98C71.366 191.511 71.8674 192.154 72.1335 192.91C72.1744 192.991 72.2256 193.022 72.287 193.001C72.3688 192.981 72.4507 192.93 72.5325 192.848C73.126 192.297 73.7195 191.827 74.313 191.439C74.9066 191.031 75.5103 190.714 76.1243 190.49C76.7382 190.265 77.3829 190.153 78.0583 190.153C79.5318 190.153 80.6779 190.582 81.4965 191.439C82.3356 192.297 82.7551 193.451 82.7551 194.901V206.142C82.7551 206.51 82.5709 206.694 82.2025 206.694H79.9309C79.7876 206.694 79.675 206.663 79.5932 206.602C79.5318 206.52 79.5011 206.387 79.5011 206.204V195.483C79.5011 194.584 79.276 193.88 78.8257 193.369C78.3755 192.858 77.7001 192.603 76.7996 192.603C76.2675 192.603 75.7559 192.705 75.2647 192.91C74.7735 193.114 74.3233 193.369 73.914 193.675C73.5251 193.961 73.1772 194.247 72.8702 194.533C72.727 194.676 72.6246 194.809 72.5632 194.931C72.5018 195.054 72.4711 195.217 72.4711 195.421V206.142C72.4711 206.51 72.287 206.694 71.9186 206.694H69.6776C69.5343 206.694 69.4218 206.663 69.3399 206.602C69.258 206.52 69.2171 206.387 69.2171 206.204V195.483C69.2171 194.584 69.0022 193.88 68.5724 193.369C68.1427 192.858 67.4571 192.603 66.5157 192.603C65.738 192.603 65.0217 192.797 64.3668 193.185C63.7323 193.553 63.0058 194.125 62.1872 194.901V206.173C62.1872 206.52 61.9928 206.694 61.6039 206.694H59.4243Z" fill="#484A4B"/>
<path d="M89.667 199.71C89.667 200.629 89.8819 201.466 90.3117 202.221C90.762 202.957 91.3555 203.549 92.0922 203.998C92.8494 204.427 93.6885 204.641 94.6095 204.641C95.5509 204.641 96.39 204.447 97.1268 204.059C97.8635 203.671 98.5389 203.069 99.1529 202.252C99.2142 202.17 99.2756 202.13 99.337 202.13C99.3984 202.109 99.4905 202.13 99.6133 202.191L101.179 202.926C101.404 203.028 101.425 203.191 101.24 203.416C100.667 204.253 100.033 204.937 99.337 205.468C98.6617 205.999 97.9044 206.387 97.0654 206.632C96.2263 206.877 95.2951 207 94.2718 207C92.7164 207 91.3452 206.653 90.1582 205.959C88.9712 205.264 88.0298 204.294 87.334 203.049C86.6586 201.803 86.3209 200.373 86.3209 198.76C86.3209 196.984 86.6688 195.462 87.3647 194.196C88.0605 192.91 89.0019 191.919 90.1889 191.225C91.3964 190.51 92.7369 190.153 94.2104 190.153C95.7249 190.153 97.0449 190.49 98.1705 191.164C99.3166 191.817 100.207 192.767 100.841 194.012C101.476 195.258 101.793 196.769 101.793 198.546C101.793 198.73 101.772 198.893 101.732 199.036C101.691 199.158 101.558 199.22 101.332 199.22H89.974C89.8717 199.22 89.7898 199.271 89.7284 199.373C89.6875 199.454 89.667 199.567 89.667 199.71ZM98.0477 197.29C98.2728 197.29 98.4161 197.259 98.4775 197.198C98.5389 197.137 98.5696 197.024 98.5696 196.861C98.5696 196.085 98.3956 195.35 98.0477 194.656C97.7203 193.961 97.2393 193.4 96.6049 192.971C95.9909 192.542 95.2235 192.328 94.3025 192.328C93.3406 192.328 92.5118 192.562 91.8159 193.032C91.1406 193.481 90.6187 194.084 90.2503 194.839C89.9024 195.595 89.7284 196.402 89.7284 197.259L98.0477 197.29Z" fill="#484A4B"/>
<path d="M120.763 190.459C120.906 190.459 121.008 190.5 121.07 190.582C121.152 190.643 121.193 190.735 121.193 190.857V192.45C121.193 192.675 121.06 192.787 120.794 192.787H117.601C117.417 192.787 117.325 192.879 117.325 193.063V206.204C117.325 206.53 117.192 206.694 116.926 206.694H114.439C114.193 206.694 114.071 206.551 114.071 206.265V193.032C114.071 192.869 113.999 192.787 113.856 192.787H111.093C110.847 192.787 110.724 192.675 110.724 192.45V190.857C110.724 190.735 110.755 190.643 110.817 190.582C110.878 190.5 110.98 190.459 111.124 190.459H113.764C113.968 190.459 114.071 190.336 114.071 190.091V187.978C114.071 186.691 114.408 185.701 115.084 185.007C115.759 184.312 116.772 183.965 118.123 183.965H120.855C121.162 183.965 121.315 184.118 121.315 184.425L121.346 185.864C121.346 185.966 121.315 186.058 121.254 186.14C121.193 186.201 121.09 186.232 120.947 186.232H118.982C118.389 186.232 117.949 186.426 117.662 186.814C117.396 187.181 117.263 187.682 117.263 188.315V190.183C117.263 190.367 117.366 190.459 117.57 190.459H120.763Z" fill="#484A4B"/>
<path d="M130.746 207C129.17 207 127.789 206.653 126.602 205.959C125.415 205.244 124.494 204.264 123.839 203.018C123.184 201.752 122.857 200.302 122.857 198.668C122.857 196.973 123.194 195.493 123.87 194.227C124.545 192.94 125.476 191.94 126.663 191.225C127.871 190.51 129.242 190.153 130.777 190.153C132.373 190.153 133.755 190.52 134.921 191.255C136.108 191.97 137.029 192.971 137.684 194.257C138.339 195.523 138.666 196.984 138.666 198.638C138.666 200.271 138.329 201.721 137.653 202.987C136.999 204.233 136.078 205.213 134.891 205.928C133.704 206.643 132.322 207 130.746 207ZM130.808 204.703C131.77 204.703 132.588 204.458 133.264 203.967C133.939 203.477 134.451 202.783 134.798 201.885C135.167 200.966 135.351 199.863 135.351 198.576C135.351 197.29 135.167 196.187 134.798 195.268C134.451 194.349 133.929 193.645 133.233 193.155C132.558 192.644 131.739 192.389 130.777 192.389C129.815 192.389 128.986 192.644 128.29 193.155C127.615 193.645 127.093 194.349 126.725 195.268C126.356 196.187 126.172 197.29 126.172 198.576C126.172 199.863 126.356 200.966 126.725 201.885C127.093 202.783 127.615 203.477 128.29 203.967C128.986 204.458 129.825 204.703 130.808 204.703Z" fill="#484A4B"/>
<path d="M142.892 206.694C142.728 206.694 142.605 206.653 142.523 206.571C142.441 206.489 142.4 206.367 142.4 206.204V190.918C142.4 190.612 142.533 190.459 142.799 190.459H145.163C145.409 190.459 145.532 190.592 145.532 190.857V192.787C145.532 192.91 145.562 192.981 145.624 193.001C145.706 193.022 145.787 192.981 145.869 192.879C146.381 192.266 146.893 191.766 147.404 191.378C147.936 190.97 148.468 190.663 149.001 190.459C149.533 190.255 150.065 190.153 150.597 190.153C151.313 190.153 151.671 190.296 151.671 190.582V192.971C151.671 193.216 151.559 193.318 151.334 193.277C151.088 193.216 150.822 193.175 150.535 193.155C150.269 193.134 149.993 193.124 149.707 193.124C149.277 193.124 148.827 193.216 148.356 193.4C147.885 193.583 147.445 193.839 147.036 194.165C146.647 194.472 146.32 194.819 146.054 195.207C145.787 195.595 145.654 195.993 145.654 196.402V206.173C145.654 206.52 145.46 206.694 145.071 206.694H142.892Z" fill="#484A4B"/>
<path d="M162.244 184.425C162.244 184.118 162.387 183.965 162.674 183.965H176.703C176.948 183.965 177.071 184.098 177.071 184.363L177.04 186.293C177.04 186.599 176.887 186.753 176.58 186.753H166.419C166.112 186.753 165.958 186.885 165.958 187.151V193.828C165.958 194.074 166.091 194.196 166.357 194.196H174.063C174.308 194.196 174.431 194.319 174.431 194.564V196.585C174.431 196.81 174.308 196.922 174.063 196.922H166.327C166.081 196.922 165.958 197.045 165.958 197.29V206.204C165.958 206.53 165.774 206.694 165.406 206.694H162.766C162.561 206.694 162.418 206.663 162.336 206.602C162.275 206.52 162.244 206.387 162.244 206.204V184.425Z" fill="#484A4B"/>
<path d="M187.246 204.856C186.529 205.55 185.742 206.081 184.882 206.449C184.022 206.816 183.05 207 181.966 207C180.39 207 179.152 206.592 178.251 205.775C177.351 204.958 176.9 203.886 176.9 202.558C176.9 201.435 177.218 200.475 177.852 199.679C178.507 198.883 179.448 198.25 180.676 197.78C181.925 197.31 183.439 197.035 185.22 196.953L187.215 196.8C187.338 196.779 187.45 196.738 187.553 196.677C187.655 196.616 187.706 196.504 187.706 196.34V195.574C187.706 194.574 187.399 193.788 186.785 193.216C186.171 192.624 185.332 192.328 184.268 192.328C183.47 192.328 182.733 192.511 182.058 192.879C181.382 193.246 180.779 193.818 180.247 194.594C180.185 194.696 180.124 194.768 180.062 194.809C180.001 194.85 179.888 194.85 179.725 194.809L177.637 194.196C177.555 194.155 177.494 194.104 177.453 194.043C177.432 193.961 177.463 193.818 177.545 193.614C178.139 192.511 179.008 191.664 180.154 191.072C181.321 190.459 182.743 190.153 184.421 190.153C185.895 190.153 187.102 190.367 188.044 190.796C188.985 191.204 189.681 191.807 190.131 192.603C190.602 193.379 190.837 194.298 190.837 195.36V206.173C190.837 206.377 190.797 206.52 190.715 206.602C190.653 206.663 190.541 206.694 190.377 206.694H188.289C188.146 206.694 188.034 206.643 187.952 206.541C187.87 206.418 187.819 206.265 187.798 206.081L187.768 204.917C187.706 204.59 187.532 204.57 187.246 204.856ZM187.706 199.066C187.706 198.719 187.563 198.566 187.276 198.607L185.619 198.729C184.8 198.77 184.053 198.883 183.378 199.066C182.702 199.23 182.119 199.454 181.628 199.74C181.157 200.026 180.779 200.373 180.492 200.782C180.226 201.17 180.093 201.629 180.093 202.16C180.093 202.957 180.369 203.59 180.922 204.059C181.495 204.509 182.262 204.733 183.224 204.733C183.838 204.733 184.411 204.631 184.943 204.427C185.496 204.202 185.977 203.927 186.386 203.6C186.796 203.253 187.113 202.895 187.338 202.528C187.583 202.16 187.706 201.803 187.706 201.456V199.066Z" fill="#484A4B"/>
<path d="M205.166 194.257C204.777 193.686 204.235 193.216 203.539 192.848C202.843 192.481 202.014 192.297 201.053 192.297C200.05 192.297 199.211 192.501 198.535 192.91C197.88 193.318 197.553 193.89 197.553 194.625C197.553 194.972 197.696 195.319 197.983 195.666C198.269 196.014 198.883 196.32 199.825 196.585L203.601 197.657C205.095 198.045 206.169 198.627 206.824 199.403C207.479 200.179 207.806 201.068 207.806 202.068C207.806 203.089 207.509 203.967 206.916 204.703C206.343 205.417 205.535 205.979 204.491 206.387C203.468 206.796 202.291 207 200.96 207C199.282 207 197.819 206.683 196.571 206.05C195.343 205.397 194.473 204.59 193.961 203.631C193.92 203.508 193.9 203.406 193.9 203.324C193.9 203.222 193.941 203.14 194.023 203.079L195.527 202.283C195.67 202.201 195.783 202.17 195.865 202.191C195.967 202.191 196.039 202.232 196.079 202.313C196.407 202.783 196.786 203.202 197.215 203.569C197.645 203.937 198.167 204.233 198.781 204.458C199.395 204.662 200.132 204.764 200.991 204.764C201.707 204.764 202.352 204.672 202.925 204.488C203.519 204.284 203.979 204.008 204.307 203.661C204.634 203.314 204.798 202.906 204.798 202.436C204.798 201.946 204.593 201.527 204.184 201.18C203.795 200.812 203.099 200.496 202.096 200.23L198.965 199.434C197.41 199.026 196.294 198.464 195.619 197.749C194.944 197.035 194.606 196.177 194.606 195.176C194.606 194.176 194.872 193.308 195.404 192.573C195.936 191.817 196.683 191.225 197.645 190.796C198.627 190.367 199.773 190.153 201.083 190.153C202.516 190.153 203.775 190.428 204.859 190.98C205.944 191.511 206.762 192.195 207.315 193.032C207.376 193.114 207.417 193.206 207.438 193.308C207.458 193.389 207.407 193.471 207.284 193.553L205.688 194.38C205.606 194.421 205.514 194.431 205.412 194.41C205.33 194.39 205.248 194.339 205.166 194.257Z" fill="#484A4B"/>
<path d="M212 206.694C211.672 206.694 211.509 206.53 211.509 206.204V184.425C211.509 184.118 211.631 183.965 211.877 183.965H214.302C214.548 183.965 214.67 184.098 214.67 184.363V192.45C214.67 192.552 214.691 192.624 214.732 192.664C214.793 192.685 214.875 192.644 214.977 192.542C215.673 191.991 216.308 191.541 216.881 191.194C217.474 190.847 218.058 190.592 218.631 190.428C219.224 190.245 219.848 190.153 220.503 190.153C222.079 190.153 223.286 190.582 224.126 191.439C224.965 192.276 225.384 193.42 225.384 194.87V206.142C225.384 206.51 225.21 206.694 224.862 206.694H222.591C222.427 206.694 222.304 206.663 222.222 206.602C222.161 206.52 222.13 206.387 222.13 206.204V195.483C222.13 194.584 221.895 193.88 221.424 193.369C220.974 192.858 220.258 192.603 219.275 192.603C218.723 192.603 218.201 192.695 217.71 192.879C217.239 193.042 216.768 193.298 216.297 193.645C215.827 193.971 215.315 194.39 214.763 194.901V206.173C214.763 206.52 214.568 206.694 214.179 206.694H212Z" fill="#484A4B"/>
<path d="M233.086 206.112C233.086 206.336 233.035 206.489 232.933 206.571C232.851 206.653 232.697 206.694 232.472 206.694H230.385C230.16 206.694 230.006 206.663 229.924 206.602C229.863 206.52 229.832 206.387 229.832 206.204V190.918C229.832 190.612 229.975 190.459 230.262 190.459H232.718C232.963 190.459 233.086 190.602 233.086 190.888V206.112ZM233.178 187.212C233.178 187.641 232.974 187.855 232.564 187.855H230.293C230.067 187.855 229.914 187.804 229.832 187.702C229.771 187.6 229.74 187.457 229.74 187.273V184.486C229.74 184.139 229.893 183.965 230.2 183.965H232.748C233.035 183.965 233.178 184.128 233.178 184.455V187.212Z" fill="#484A4B"/>
<path d="M244.754 207C243.178 207 241.796 206.653 240.609 205.959C239.422 205.244 238.501 204.264 237.847 203.018C237.192 201.752 236.864 200.302 236.864 198.668C236.864 196.973 237.202 195.493 237.877 194.227C238.553 192.94 239.484 191.94 240.671 191.225C241.878 190.51 243.249 190.153 244.784 190.153C246.381 190.153 247.762 190.52 248.929 191.255C250.116 191.97 251.037 192.971 251.692 194.257C252.346 195.523 252.674 196.984 252.674 198.638C252.674 200.271 252.336 201.721 251.661 202.987C251.006 204.233 250.085 205.213 248.898 205.928C247.711 206.643 246.33 207 244.754 207ZM244.815 204.703C245.777 204.703 246.596 204.458 247.271 203.967C247.946 203.477 248.458 202.783 248.806 201.885C249.174 200.966 249.358 199.863 249.358 198.576C249.358 197.29 249.174 196.187 248.806 195.268C248.458 194.349 247.936 193.645 247.24 193.155C246.565 192.644 245.746 192.389 244.784 192.389C243.822 192.389 242.994 192.644 242.298 193.155C241.622 193.645 241.101 194.349 240.732 195.268C240.364 196.187 240.18 197.29 240.18 198.576C240.18 199.863 240.364 200.966 240.732 201.885C241.101 202.783 241.622 203.477 242.298 203.967C242.994 204.458 243.833 204.703 244.815 204.703Z" fill="#484A4B"/>
<path d="M256.899 206.694C256.572 206.694 256.408 206.53 256.408 206.204V190.918C256.408 190.612 256.541 190.459 256.807 190.459H259.232C259.478 190.459 259.6 190.592 259.6 190.857V192.542C259.6 192.644 259.621 192.716 259.662 192.756C259.723 192.777 259.805 192.736 259.907 192.634C260.542 192.123 261.146 191.684 261.719 191.317C262.292 190.929 262.875 190.643 263.468 190.459C264.062 190.255 264.707 190.153 265.402 190.153C266.958 190.153 268.165 190.582 269.025 191.439C269.884 192.297 270.314 193.43 270.314 194.839V206.142C270.314 206.51 270.14 206.694 269.792 206.694H267.521C267.357 206.694 267.234 206.663 267.152 206.602C267.091 206.52 267.06 206.387 267.06 206.204V195.483C267.06 194.584 266.825 193.88 266.354 193.369C265.883 192.858 265.157 192.603 264.174 192.603C263.622 192.603 263.11 192.695 262.64 192.879C262.169 193.042 261.698 193.298 261.227 193.645C260.757 193.971 260.235 194.39 259.662 194.901V206.173C259.662 206.52 259.467 206.694 259.079 206.694H256.899Z" fill="#484A4B"/>
<path d="M9.47552 1.86632L26.6139 46.0643L43.1754 1.86632H52.5685L39.4264 33.9332L26.2843 66L0 1.86632H9.47552Z" fill="#121212"/>
<path d="M61.9411 1.86632H100.667V9.75578H69.9334V28.419H97.3713V36.3085H69.9334V55.2262H101.821V63.2005H61.9411V1.86632Z" fill="#121212"/>
<path d="M164.962 65.1517L121.21 19.5116L121.375 63.2005H113.3V0H113.712L157.382 46.3188L157.217 1.86632H165.209V65.1517H164.962Z" fill="#121212"/>
<path d="M179.867 63.2005V1.86632H196.181C202.059 1.86632 207.057 2.79949 211.177 4.66581C215.297 6.47558 218.62 8.90746 221.147 11.9614C223.729 15.0154 225.597 18.4087 226.75 22.1414C227.959 25.8175 228.563 29.5219 228.563 33.2545C228.563 37.8355 227.766 41.9923 226.173 45.7249C224.58 49.401 222.411 52.5398 219.664 55.1414C216.918 57.7429 213.759 59.7506 210.189 61.1645C206.673 62.5219 202.965 63.2005 199.065 63.2005H179.867ZM187.859 55.2262H197.5C201.839 55.2262 205.712 54.3496 209.117 52.5964C212.578 50.8432 215.297 48.2982 217.275 44.9614C219.252 41.5681 220.241 37.4679 220.241 32.6607C220.241 27.6838 219.197 23.4987 217.11 20.1054C215.077 16.7121 212.358 14.1388 208.953 12.3856C205.602 10.6324 202.031 9.75578 198.241 9.75578H187.859V55.2262Z" fill="#121212"/>
<path d="M252.678 42.7558L230.596 1.86632H240.484L256.881 33.4242L273.195 1.86632H283L260.671 42.7558V63.2005H252.678V42.7558Z" fill="#121212"/>
<path d="M4 115.581V84.1321H4.04178L20.1696 107.069L18.2476 106.649L34.2918 84.1321H34.3754V115.581H29.9465V94.2376L30.239 96.5438L19.0415 112.436H18.9579L7.55146 96.5438L8.30353 94.4473V115.581H4Z" fill="#121212"/>
<path d="M40.0019 106.607C40.0019 104.846 40.4197 103.267 41.2554 101.869C42.091 100.443 43.247 99.3253 44.7233 98.5146C46.1996 97.7039 47.8848 97.2986 49.7789 97.2986C51.7008 97.2986 53.386 97.7039 54.8345 98.5146C56.2829 99.3253 57.3971 100.443 58.177 101.869C58.9848 103.267 59.3887 104.846 59.3887 106.607C59.3887 108.368 58.9848 109.962 58.177 111.388C57.3971 112.813 56.2829 113.945 54.8345 114.784C53.386 115.595 51.6869 116 49.7371 116C47.8708 116 46.1996 115.623 44.7233 114.868C43.2748 114.113 42.1189 113.037 41.2554 111.639C40.4197 110.213 40.0019 108.536 40.0019 106.607ZM44.3472 106.649C44.3472 107.74 44.584 108.732 45.0575 109.626C45.5311 110.493 46.1717 111.192 46.9795 111.723C47.7873 112.226 48.6925 112.478 49.6953 112.478C50.7259 112.478 51.6451 112.226 52.4529 111.723C53.2607 111.192 53.8874 110.493 54.3331 109.626C54.8066 108.732 55.0434 107.74 55.0434 106.649C55.0434 105.559 54.8066 104.581 54.3331 103.714C53.8874 102.848 53.2607 102.149 52.4529 101.618C51.6451 101.086 50.7259 100.821 49.6953 100.821C48.6647 100.821 47.7455 101.086 46.9377 101.618C46.1299 102.149 45.4893 102.861 45.0157 103.756C44.5701 104.623 44.3472 105.587 44.3472 106.649Z" fill="#121212"/>
<path d="M71.2048 116C69.5614 116 68.0851 115.623 66.7759 114.868C65.4668 114.085 64.4361 112.981 63.6841 111.555C62.932 110.13 62.556 108.466 62.556 106.565C62.556 104.609 62.9598 102.945 63.7676 101.576C64.5754 100.178 65.6617 99.1156 67.0266 98.3888C68.4193 97.6341 69.9792 97.2567 71.7062 97.2567C73.0432 97.2567 74.3106 97.5362 75.5083 98.0953C76.7339 98.6264 77.681 99.3812 78.3495 100.36L78.2241 101.827V83H82.4859V115.581H78.1824V111.429L78.642 112.562C77.7785 113.54 76.72 114.365 75.4665 115.036C74.2131 115.679 72.7925 116 71.2048 116ZM72.5418 112.352C73.5167 112.352 74.3802 112.184 75.1323 111.849C75.8844 111.513 76.525 111.038 77.0543 110.423C77.5835 109.78 77.9595 109.039 78.1824 108.201V104.679C77.9874 103.896 77.6113 103.211 77.0543 102.624C76.525 102.009 75.8704 101.534 75.0905 101.198C74.3106 100.863 73.461 100.695 72.5418 100.695C71.5112 100.695 70.5641 100.947 69.7006 101.45C68.865 101.925 68.1826 102.596 67.6533 103.463C67.152 104.329 66.9013 105.335 66.9013 106.482C66.9013 107.572 67.152 108.564 67.6533 109.459C68.1826 110.353 68.8789 111.066 69.7424 111.597C70.6059 112.1 71.5391 112.352 72.5418 112.352Z" fill="#121212"/>
<path d="M96.8853 116C94.8519 116 93.111 115.609 91.6626 114.826C90.2141 114.015 89.0999 112.911 88.32 111.513C87.5401 110.088 87.1501 108.466 87.1501 106.649C87.1501 104.916 87.5819 103.351 88.4454 101.953C89.3367 100.527 90.5205 99.3952 91.9968 98.5565C93.501 97.7179 95.1583 97.2986 96.9689 97.2986C99.3086 97.2986 101.245 97.9835 102.777 99.3532C104.336 100.723 105.381 102.638 105.91 105.098L91.6626 110.046L90.6598 107.53L102.066 103.421L101.189 103.966C100.855 103.099 100.325 102.344 99.6011 101.701C98.8769 101.03 97.8881 100.695 96.6346 100.695C95.6318 100.695 94.7266 100.947 93.9188 101.45C93.1389 101.925 92.5121 102.596 92.0386 103.463C91.5929 104.301 91.3701 105.294 91.3701 106.44C91.3701 107.614 91.6069 108.648 92.0804 109.543C92.5818 110.409 93.2503 111.094 94.0859 111.597C94.9494 112.1 95.9104 112.352 96.9689 112.352C97.7209 112.352 98.4312 112.212 99.0997 111.933C99.7961 111.653 100.451 111.304 101.063 110.884L103.027 114.071C102.108 114.658 101.105 115.133 100.019 115.497C98.9605 115.832 97.9159 116 96.8853 116Z" fill="#121212"/>
<path d="M114.114 98.0114L114.532 103.043L114.323 102.372C114.796 101.31 115.465 100.402 116.328 99.6468C117.192 98.892 118.083 98.3189 119.002 97.9276C119.949 97.5083 120.743 97.2986 121.384 97.2986L121.175 101.576C119.838 101.492 118.668 101.743 117.665 102.33C116.69 102.917 115.924 103.7 115.367 104.679C114.81 105.657 114.532 106.705 114.532 107.823V115.581H110.27V98.0114H114.114Z" fill="#121212"/>
<path d="M129.691 98.0114L130.067 102.037L129.899 101.492C130.484 100.234 131.39 99.2274 132.615 98.4727C133.841 97.69 135.289 97.2986 136.961 97.2986C138.604 97.2986 139.955 97.7878 141.013 98.7662C142.1 99.7446 142.657 101.017 142.685 102.582V115.581H138.381V104.091C138.353 103.197 138.089 102.47 137.587 101.911C137.086 101.324 136.306 101.017 135.248 100.989C134.301 100.989 133.437 101.282 132.657 101.869C131.877 102.428 131.264 103.197 130.819 104.175C130.373 105.154 130.15 106.286 130.15 107.572V115.581H125.847V98.0114H129.691Z" fill="#121212"/>
<path d="M146.802 113.191C146.802 112.52 147.039 111.961 147.512 111.513C148.014 111.038 148.571 110.801 149.184 110.801C149.741 110.801 150.256 111.038 150.73 111.513C151.231 111.961 151.482 112.52 151.482 113.191C151.482 113.917 151.231 114.504 150.73 114.952C150.256 115.371 149.741 115.581 149.184 115.581C148.571 115.581 148.014 115.371 147.512 114.952C147.039 114.504 146.802 113.917 146.802 113.191Z" fill="#121212"/>
<path d="M169.335 115.581V84.1321H169.377L185.505 107.069L183.583 106.649L199.627 84.1321H199.711V115.581H195.282V94.2376L195.574 96.5438L184.377 112.436H184.293L172.887 96.5438L173.639 94.4473V115.581H169.335Z" fill="#121212"/>
<path d="M206.841 98.0114H211.145V115.581H206.841V98.0114ZM206.591 91.7217C206.591 91.0508 206.855 90.4917 207.385 90.0445C207.914 89.5972 208.485 89.3736 209.098 89.3736C209.738 89.3736 210.309 89.5972 210.811 90.0445C211.312 90.4917 211.563 91.0508 211.563 91.7217C211.563 92.3926 211.312 92.9517 210.811 93.399C210.309 93.8183 209.738 94.028 209.098 94.028C208.485 94.028 207.914 93.8183 207.385 93.399C206.855 92.9517 206.591 92.3926 206.591 91.7217Z" fill="#121212"/>
<path d="M221.121 98.0114L221.497 102.037L221.33 101.492C221.915 100.234 222.82 99.2274 224.046 98.4727C225.271 97.69 226.72 97.2986 228.391 97.2986C230.034 97.2986 231.385 97.7878 232.444 98.7662C233.53 99.7446 234.087 101.017 234.115 102.582V115.581H229.812V104.091C229.784 103.197 229.519 102.47 229.018 101.911C228.516 101.324 227.736 101.017 226.678 100.989C225.731 100.989 224.867 101.282 224.088 101.869C223.308 102.428 222.695 103.197 222.249 104.175C221.803 105.154 221.581 106.286 221.581 107.572V115.581H217.277V98.0114H221.121Z" fill="#121212"/>
<path d="M240.28 98.0114H244.583V115.581H240.28V98.0114ZM240.029 91.7217C240.029 91.0508 240.294 90.4917 240.823 90.0445C241.352 89.5972 241.923 89.3736 242.536 89.3736C243.177 89.3736 243.748 89.5972 244.249 90.0445C244.751 90.4917 245.001 91.0508 245.001 91.7217C245.001 92.3926 244.751 92.9517 244.249 93.399C243.748 93.8183 243.177 94.028 242.536 94.028C241.923 94.028 241.352 93.8183 240.823 93.399C240.294 92.9517 240.029 92.3926 240.029 91.7217Z" fill="#121212"/>
<path d="M254.56 98.0114L254.936 101.785L254.768 101.492C255.437 100.178 256.356 99.1576 257.526 98.4307C258.696 97.676 260.047 97.2986 261.579 97.2986C262.526 97.2986 263.376 97.4524 264.128 97.7598C264.908 98.0673 265.548 98.5006 266.05 99.0597C266.551 99.6188 266.871 100.318 267.011 101.156L266.802 101.282C267.498 100.052 268.417 99.0877 269.559 98.3888C270.729 97.662 271.969 97.2986 273.278 97.2986C274.977 97.2986 276.328 97.7878 277.331 98.7662C278.361 99.7446 278.891 101.003 278.918 102.54V115.581H274.657V104.175C274.629 103.309 274.42 102.582 274.03 101.995C273.668 101.408 273.013 101.086 272.066 101.03C271.063 101.03 270.172 101.338 269.392 101.953C268.64 102.568 268.055 103.365 267.637 104.343C267.219 105.321 266.997 106.37 266.969 107.488V115.581H262.665V104.175C262.637 103.309 262.428 102.582 262.039 101.995C261.649 101.408 260.966 101.086 259.991 101.03C258.988 101.03 258.111 101.338 257.359 101.953C256.607 102.568 256.022 103.379 255.604 104.385C255.214 105.363 255.019 106.398 255.019 107.488V115.581H250.716V98.0114H254.56Z" fill="#121212"/>
<path d="M292.414 116C290.771 116 289.281 115.665 287.944 114.994C286.607 114.295 285.548 113.26 284.768 111.891C283.988 110.521 283.598 108.83 283.598 106.817C283.598 104.832 284.002 103.127 284.81 101.701C285.646 100.276 286.732 99.1855 288.069 98.4307C289.434 97.648 290.91 97.2567 292.498 97.2567C294.169 97.2567 295.534 97.6201 296.592 98.3469C297.679 99.0457 298.528 99.8704 299.141 100.821L298.849 101.492L299.266 98.0114H303.236V115.581H298.932V111.178L299.392 112.226C299.28 112.45 299.044 112.771 298.682 113.191C298.319 113.582 297.832 114.001 297.219 114.449C296.634 114.896 295.938 115.273 295.13 115.581C294.35 115.86 293.445 116 292.414 116ZM293.584 112.478C294.503 112.478 295.325 112.31 296.049 111.975C296.773 111.639 297.386 111.164 297.888 110.549C298.389 109.934 298.737 109.207 298.932 108.368V104.72C298.709 103.938 298.333 103.267 297.804 102.708C297.275 102.121 296.634 101.659 295.882 101.324C295.158 100.989 294.35 100.821 293.459 100.821C292.456 100.821 291.537 101.072 290.701 101.576C289.866 102.051 289.197 102.722 288.696 103.588C288.194 104.455 287.944 105.461 287.944 106.607C287.944 107.698 288.194 108.69 288.696 109.584C289.225 110.479 289.921 111.192 290.785 111.723C291.648 112.226 292.581 112.478 293.584 112.478Z" fill="#121212"/>
<path d="M309.411 83H313.714V115.581H309.411V83Z" fill="#121212"/>
<path d="M317.799 113.191C317.799 112.52 318.036 111.961 318.51 111.513C319.011 111.038 319.568 110.801 320.181 110.801C320.738 110.801 321.253 111.038 321.727 111.513C322.228 111.961 322.479 112.52 322.479 113.191C322.479 113.917 322.228 114.504 321.727 114.952C321.253 115.371 320.738 115.581 320.181 115.581C319.568 115.581 319.011 115.371 318.51 114.952C318.036 114.504 317.799 113.917 317.799 113.191Z" fill="#121212"/>
<path d="M362.686 113.274C362.24 113.582 361.572 113.959 360.68 114.407C359.817 114.826 358.786 115.189 357.588 115.497C356.418 115.804 355.123 115.944 353.703 115.916C351.335 115.888 349.204 115.469 347.31 114.658C345.444 113.848 343.856 112.743 342.547 111.346C341.238 109.92 340.221 108.299 339.497 106.482C338.8 104.637 338.452 102.68 338.452 100.611C338.452 98.3189 338.814 96.2224 339.539 94.3215C340.263 92.3926 341.293 90.7154 342.63 89.2897C343.995 87.864 345.583 86.7598 347.394 85.9771C349.232 85.1944 351.238 84.803 353.41 84.803C355.276 84.803 356.962 85.0546 358.466 85.5578C359.97 86.061 361.237 86.648 362.268 87.3189L360.513 91.5121C359.705 90.953 358.703 90.4219 357.505 89.9187C356.335 89.3875 355.026 89.122 353.577 89.122C352.157 89.122 350.806 89.4155 349.524 90.0025C348.271 90.5616 347.157 91.3583 346.182 92.3926C345.235 93.399 344.483 94.587 343.926 95.9568C343.369 97.2986 343.09 98.7662 343.09 100.36C343.09 101.981 343.341 103.476 343.842 104.846C344.344 106.216 345.054 107.404 345.973 108.41C346.92 109.417 348.048 110.199 349.357 110.759C350.666 111.318 352.143 111.597 353.786 111.597C355.346 111.597 356.711 111.36 357.881 110.884C359.079 110.409 360.053 109.864 360.806 109.249L362.686 113.274Z" fill="#121212"/>
<path d="M368.005 83H372.309V115.581H368.005V83Z" fill="#121212"/>
<path d="M386.672 116C384.638 116 382.897 115.609 381.449 114.826C380.001 114.015 378.886 112.911 378.107 111.513C377.327 110.088 376.937 108.466 376.937 106.649C376.937 104.916 377.368 103.351 378.232 101.953C379.123 100.527 380.307 99.3952 381.783 98.5565C383.287 97.7179 384.945 97.2986 386.755 97.2986C389.095 97.2986 391.031 97.9835 392.563 99.3532C394.123 100.723 395.167 102.638 395.697 105.098L381.449 110.046L380.446 107.53L391.853 103.421L390.975 103.966C390.641 103.099 390.112 102.344 389.388 101.701C388.663 101.03 387.675 100.695 386.421 100.695C385.418 100.695 384.513 100.947 383.705 101.45C382.925 101.925 382.299 102.596 381.825 103.463C381.379 104.301 381.157 105.294 381.157 106.44C381.157 107.614 381.393 108.648 381.867 109.543C382.368 110.409 383.037 111.094 383.872 111.597C384.736 112.1 385.697 112.352 386.755 112.352C387.507 112.352 388.218 112.212 388.886 111.933C389.583 111.653 390.237 111.304 390.85 110.884L392.814 114.071C391.895 114.658 390.892 115.133 389.805 115.497C388.747 115.832 387.702 116 386.672 116Z" fill="#121212"/>
<path d="M407.368 116C405.725 116 404.235 115.665 402.898 114.994C401.561 114.295 400.502 113.26 399.722 111.891C398.942 110.521 398.552 108.83 398.552 106.817C398.552 104.832 398.956 103.127 399.764 101.701C400.6 100.276 401.686 99.1855 403.023 98.4307C404.388 97.648 405.864 97.2567 407.452 97.2567C409.123 97.2567 410.488 97.6201 411.546 98.3469C412.633 99.0457 413.482 99.8704 414.095 100.821L413.803 101.492L414.22 98.0114H418.19V115.581H413.886V111.178L414.346 112.226C414.234 112.45 413.998 112.771 413.635 113.191C413.273 113.582 412.786 114.001 412.173 114.449C411.588 114.896 410.892 115.273 410.084 115.581C409.304 115.86 408.399 116 407.368 116ZM408.538 112.478C409.457 112.478 410.279 112.31 411.003 111.975C411.727 111.639 412.34 111.164 412.842 110.549C413.343 109.934 413.691 109.207 413.886 108.368V104.72C413.663 103.938 413.287 103.267 412.758 102.708C412.229 102.121 411.588 101.659 410.836 101.324C410.112 100.989 409.304 100.821 408.413 100.821C407.41 100.821 406.491 101.072 405.655 101.576C404.819 102.051 404.151 102.722 403.65 103.588C403.148 104.455 402.898 105.461 402.898 106.607C402.898 107.698 403.148 108.69 403.65 109.584C404.179 110.479 404.875 111.192 405.739 111.723C406.602 112.226 407.535 112.478 408.538 112.478Z" fill="#121212"/>
<path d="M428.209 98.0114L428.585 102.037L428.418 101.492C429.003 100.234 429.908 99.2274 431.134 98.4727C432.359 97.69 433.808 97.2986 435.479 97.2986C437.122 97.2986 438.473 97.7878 439.532 98.7662C440.618 99.7446 441.175 101.017 441.203 102.582V115.581H436.899V104.091C436.872 103.197 436.607 102.47 436.106 101.911C435.604 101.324 434.824 101.017 433.766 100.989C432.819 100.989 431.955 101.282 431.175 101.869C430.395 102.428 429.783 103.197 429.337 104.175C428.891 105.154 428.668 106.286 428.668 107.572V115.581H424.365V98.0114H428.209Z" fill="#121212"/>
<path d="M445.32 113.191C445.32 112.52 445.557 111.961 446.031 111.513C446.532 111.038 447.089 110.801 447.702 110.801C448.259 110.801 448.774 111.038 449.248 111.513C449.749 111.961 450 112.52 450 113.191C450 113.917 449.749 114.504 449.248 114.952C448.774 115.371 448.259 115.581 447.702 115.581C447.089 115.581 446.532 115.371 446.031 114.952C445.557 114.504 445.32 113.917 445.32 113.191Z" fill="#121212"/>
</svg>
